<?xml version="1.0" encoding="UTF-8"?>
<svg id="Capa_2" data-name="Capa 2" xmlns="http://www.w3.org/2000/svg" viewBox="0 0 451.42 228.66">
  <defs>
    <style>
      .cls-1 {
        fill: none;
        stroke: #000;
        stroke-miterlimit: 10;
      }
    </style>
  </defs>
  <path class="cls-1" d="M197.38,228.14c-57.42,0-114.83,0-172.25,0-5.42,0-10.27-1.84-14.55-5.08-5.37-4.05-8.53-9.51-9.72-16.09-.22-1.19-.34-2.43-.34-3.68,.04-16.87,.07-33.75,0-50.62-.02-3.81,2.77-6.8,6.77-6.88,7.55-.15,14.3-2.65,20.12-7.63,4.58-3.92,7.71-8.74,9.58-14.42,1.18-3.57,1.76-7.26,1.49-11-.52-7.05-2.99-13.32-7.62-18.79-4.78-5.64-10.88-8.91-17.94-10.53-1.99-.45-4.08-.62-6.15-.62-3.4,0-6.2-2.73-6.21-6.13-.01-17.45-.09-34.9,.05-52.36,.04-4.97,1.88-9.56,4.86-13.55C8.62,6.54,12.72,3.48,17.8,1.82c2.55-.83,5.15-1.29,7.85-1.29,114.43,.02,228.86,.02,343.3,0,1.29,0,1.96,.04,2.17,1.68,.43,3.34,3.47,5.5,6.93,5.33,3.2-.15,5.81-2.67,6.09-6,.07-.86,.37-1,1.13-1,14.16,.02,28.33-.11,42.49,.08,4.83,.07,9.23,2.06,13.09,5,5.35,4.08,8.53,9.52,9.72,16.09,.22,1.19,.35,2.43,.34,3.68-.04,17.01-.03,34.01-.02,51.02,0,3.51-2.7,6.36-6.33,6.44-7.7,.17-14.59,2.59-20.52,7.66-4.59,3.92-7.71,8.74-9.59,14.42-1.18,3.57-1.77,7.26-1.49,11,.52,7.05,2.99,13.33,7.61,18.79,4.77,5.64,10.88,8.91,17.94,10.53,1.99,.46,4.08,.62,6.15,.62,3.4,0,6.21,2.73,6.21,6.12,.01,17.45,.09,34.9-.05,52.36-.04,4.97-1.87,9.56-4.86,13.55-3.17,4.24-7.27,7.31-12.35,8.97-2.55,.83-5.14,1.3-7.85,1.3-13.01-.04-26.01-.03-39.02,0-1.06,0-1.41-.16-1.36-1.34,.17-3.88-2.77-6.91-6.54-6.92-3.8-.02-6.8,2.98-6.6,6.84,.08,1.45-.52,1.42-1.57,1.42-57.77-.02-115.55-.01-173.32-.01Z"/>
  <path class="cls-1" d="M384.61,191.02c0,2.27-.13,4.55,.03,6.8,.23,3.03-2.38,5.77-4.95,6.26-3.18,.6-6.02-1.16-7.1-4.29-.2-.58-.3-1.17-.29-1.8,.02-4.67,0-9.34,.01-14.01,0-3.67,2.84-6.41,6.53-6.33,2.84,.06,5.72,2.92,5.75,5.77,.03,2.53,0,5.07,0,7.6Z"/>
  <path class="cls-1" d="M384.61,88.9c0,2.09-.06,4.19,.01,6.27,.12,3.57-2.88,6.39-6.21,6.36-3.41-.03-6.19-3.13-6.12-6.39,.09-4.14,.05-8.28,.01-12.42-.02-2.95,2.86-6.34,6.39-6.1,3.24,.22,5.91,2.78,5.91,6.13,0,2.05,0,4.09,0,6.14Z"/>
  <path class="cls-1" d="M384.61,139.71c0,2.18,0,4.36,0,6.54,0,2.5-2.23,5.16-4.77,5.73-2.52,.56-5.48-.78-6.64-2.98-.6-1.14-.93-2.31-.91-3.64,.06-4.05,.02-8.1,.02-12.15,0-3.02,2.65-6.07,6.15-6.05,3.35,.02,6.13,2.72,6.14,6.01,0,2.18,0,4.36,0,6.54Z"/>
  <path class="cls-1" d="M384.61,38.46c0,2.13,.01,4.27,0,6.4-.03,3.57-2.78,6.08-6.03,6.13-3.44,.06-6.15-2.51-6.24-6.05-.1-4.31-.03-8.63-.02-12.94,0-2.19,1.75-4.71,3.85-5.48,2.38-.87,4.55-.54,6.47,1.26,1.41,1.33,2.06,2.86,1.99,4.8-.07,1.95-.02,3.91-.02,5.87Z"/>
</svg>